<svg width="64" height="64" viewBox="0 0 64 64" fill="none" xmlns="http://www.w3.org/2000/svg">
  <circle cx="32" cy="32" r="32" fill="#26A17B"/>
  <path d="M37.752 35.083c-.316.022-1.947.113-5.592.113-2.9 0-4.949-.085-5.67-.113-11.194-.492-19.546-2.44-19.546-4.773s8.352-4.282 19.546-4.78v7.62c.734.052 2.82.174 5.721.174 3.482 0 5.224-.145 5.54-.182V25.53c11.173.498 19.506 2.446 19.506 4.773s-8.333 4.275-19.506 4.78Zm0-10.344V17.92h15.596v-10.4H10.892v10.4h15.598v6.812c-12.673.584-22.2 3.099-22.2 6.108 0 3.01 9.527 5.524 22.2 6.108V58.8h11.262V36.95c12.646-.584 22.156-3.097 22.156-6.104 0-3.007-9.51-5.52-22.156-6.107Z" fill="#fff"/>
</svg>
